<?xml version="1.0" encoding="UTF-8" standalone="no"?>
<!DOCTYPE svg PUBLIC "-//W3C//DTD SVG 1.1//EN"
 "http://www.w3.org/Graphics/SVG/1.1/DTD/svg11.dtd">
<!-- Generated by graphviz version 2.47.0 (20210316.0004)
 -->
<!-- Title: dependencies Pages: 1 -->
<svg width="807pt" height="290pt"
 viewBox="0.00 0.00 807.00 290.00" xmlns="http://www.w3.org/2000/svg" xmlns:xlink="http://www.w3.org/1999/xlink">
<g id="graph0" class="graph" transform="scale(1 1) rotate(0) translate(4 286)">
<title>dependencies</title>
<polygon fill="white" stroke="transparent" points="-4,4 -4,-286 803,-286 803,4 -4,4"/>
<text text-anchor="start" x="378.51" y="-42.4" font-family="Times-12" font-weight="bold" font-size="14.00">Legend</text>
<polygon fill="#ffffb3" stroke="transparent" points="165.5,-10 165.5,-30 185.5,-30 185.5,-10 165.5,-10"/>
<text text-anchor="start" x="189.13" y="-15.4" font-family="Times-12" font-size="14.00"> &#160;Declarations</text>
<polygon fill="#8dd3c7" stroke="transparent" points="278.5,-10 278.5,-30 298.5,-30 298.5,-10 278.5,-10"/>
<text text-anchor="start" x="302.23" y="-15.4" font-family="Times-12" font-size="14.00"> &#160;Module</text>
<polygon fill="#80b1d3" stroke="transparent" points="364.5,-10 364.5,-30 384.5,-30 384.5,-10 364.5,-10"/>
<text text-anchor="start" x="388.28" y="-15.4" font-family="Times-12" font-size="14.00"> &#160;Bootstrap</text>
<polygon fill="#fdb462" stroke="transparent" points="461.5,-10 461.5,-30 481.5,-30 481.5,-10 461.5,-10"/>
<text text-anchor="start" x="485.17" y="-15.4" font-family="Times-12" font-size="14.00"> &#160;Providers</text>
<polygon fill="#fb8072" stroke="transparent" points="557.5,-10 557.5,-30 577.5,-30 577.5,-10 557.5,-10"/>
<text text-anchor="start" x="581.23" y="-15.4" font-family="Times-12" font-size="14.00"> &#160;Exports</text>
<g id="clust1" class="cluster">
<title>cluster_AppModule</title>
<polygon fill="none" stroke="black" stroke-dasharray="1,5" points="8,-70 8,-274 507,-274 507,-70 8,-70"/>
</g>
<g id="clust2" class="cluster">
<title>cluster_AppModule_declarations</title>
<polygon fill="none" stroke="black" points="16,-78 16,-130 138,-130 138,-78 16,-78"/>
</g>
<g id="clust4" class="cluster">
<title>cluster_AppModule_imports</title>
<polygon fill="none" stroke="black" points="146,-78 146,-130 499,-130 499,-78 146,-78"/>
</g>
<g id="clust6" class="cluster">
<title>cluster_AppModule_bootstrap</title>
<polygon fill="none" stroke="black" points="198,-214 198,-266 322,-266 322,-214 198,-214"/>
</g>
<g id="clust20" class="cluster">
<title>cluster_UserModule</title>
<polygon fill="none" stroke="black" stroke-dasharray="1,5" points="515,-138 515,-206 791,-206 791,-138 515,-138"/>
</g>
<g id="clust21" class="cluster">
<title>cluster_UserModule_declarations</title>
<polygon fill="none" stroke="black" points="659,-146 659,-198 783,-198 783,-146 659,-146"/>
</g>
<g id="clust24" class="cluster">
<title>cluster_UserModule_exports</title>
<polygon fill="none" stroke="black" points="523,-146 523,-198 651,-198 651,-146 523,-146"/>
</g>
<!-- AppComponent -->
<g id="node1" class="node">
<title>AppComponent</title>
<polygon fill="#ffffb3" stroke="black" points="129.94,-122 24.06,-122 24.06,-86 129.94,-86 129.94,-122"/>
<text text-anchor="middle" x="77" y="-99.8" font-family="Times,serif" font-size="14.00">AppComponent</text>
</g>
<!-- AppModule -->
<g id="node2" class="node">
<title>AppModule</title>
<polygon fill="#8dd3c7" stroke="black" points="301.66,-190 298.66,-194 277.66,-194 274.66,-190 218.34,-190 218.34,-154 301.66,-154 301.66,-190"/>
<text text-anchor="middle" x="260" y="-167.8" font-family="Times,serif" font-size="14.00">AppModule</text>
</g>
<!-- AppComponent&#45;&gt;AppModule -->
<g id="edge1" class="edge">
<title>AppComponent&#45;&gt;AppModule</title>
<path fill="none" stroke="black" d="M77,-122.22C77,-142.37 77,-172 77,-172 77,-172 208.02,-172 208.02,-172"/>
<polygon fill="black" stroke="black" points="208.02,-175.5 218.02,-172 208.02,-168.5 208.02,-175.5"/>
</g>
<!-- AppComponent  -->
<g id="node6" class="node">
<title>AppComponent </title>
<polygon fill="#80b1d3" stroke="black" points="314.44,-258 205.56,-258 205.56,-222 314.44,-222 314.44,-258"/>
<text text-anchor="middle" x="260" y="-235.8" font-family="Times,serif" font-size="14.00">AppComponent </text>
</g>
<!-- AppModule&#45;&gt;AppComponent  -->
<g id="edge5" class="edge">
<title>AppModule&#45;&gt;AppComponent </title>
<path fill="none" stroke="black" stroke-dasharray="1,5" d="M260,-190.22C260,-190.22 260,-211.73 260,-211.73"/>
<polygon fill="black" stroke="black" points="256.5,-211.73 260,-221.73 263.5,-211.73 256.5,-211.73"/>
</g>
<!-- AppRoutingModule -->
<g id="node3" class="node">
<title>AppRoutingModule</title>
<polygon fill="#8dd3c7" stroke="black" points="387.27,-122 384.27,-126 363.27,-126 360.27,-122 258.73,-122 258.73,-86 387.27,-86 387.27,-122"/>
<text text-anchor="middle" x="323" y="-99.8" font-family="Times,serif" font-size="14.00">AppRoutingModule</text>
</g>
<!-- AppRoutingModule&#45;&gt;AppModule -->
<g id="edge2" class="edge">
<title>AppRoutingModule&#45;&gt;AppModule</title>
<path fill="none" stroke="black" d="M280.22,-122.22C280.22,-122.22 280.22,-143.73 280.22,-143.73"/>
<polygon fill="black" stroke="black" points="276.72,-143.73 280.22,-153.73 283.72,-143.73 276.72,-143.73"/>
</g>
<!-- CoreModule -->
<g id="node4" class="node">
<title>CoreModule</title>
<polygon fill="#8dd3c7" stroke="black" points="240.26,-122 237.26,-126 216.26,-126 213.26,-122 153.74,-122 153.74,-86 240.26,-86 240.26,-122"/>
<text text-anchor="middle" x="197" y="-99.8" font-family="Times,serif" font-size="14.00">CoreModule</text>
</g>
<!-- CoreModule&#45;&gt;AppModule -->
<g id="edge3" class="edge">
<title>CoreModule&#45;&gt;AppModule</title>
<path fill="none" stroke="black" d="M229.28,-122.22C229.28,-122.22 229.28,-143.73 229.28,-143.73"/>
<polygon fill="black" stroke="black" points="225.78,-143.73 229.28,-153.73 232.78,-143.73 225.78,-143.73"/>
</g>
<!-- UserModule -->
<g id="node5" class="node">
<title>UserModule</title>
<polygon fill="#8dd3c7" stroke="black" points="490.98,-122 487.98,-126 466.98,-126 463.98,-122 405.02,-122 405.02,-86 490.98,-86 490.98,-122"/>
<text text-anchor="middle" x="448" y="-99.8" font-family="Times,serif" font-size="14.00">UserModule</text>
</g>
<!-- UserModule&#45;&gt;AppModule -->
<g id="edge4" class="edge">
<title>UserModule&#45;&gt;AppModule</title>
<path fill="none" stroke="black" d="M433.67,-122.27C433.67,-140.56 433.67,-166 433.67,-166 433.67,-166 312.04,-166 312.04,-166"/>
<polygon fill="black" stroke="black" points="312.04,-162.5 302.04,-166 312.04,-169.5 312.04,-162.5"/>
</g>
<!-- UserComponent  -->
<g id="node8" class="node">
<title>UserComponent </title>
<polygon fill="#fb8072" stroke="black" points="642.76,-190 531.24,-190 531.24,-154 642.76,-154 642.76,-190"/>
<text text-anchor="middle" x="587" y="-167.8" font-family="Times,serif" font-size="14.00">UserComponent </text>
</g>
<!-- UserModule&#45;&gt;UserComponent  -->
<g id="edge7" class="edge">
<title>UserModule&#45;&gt;UserComponent </title>
<path fill="none" stroke="black" stroke-dasharray="5,2" d="M462.33,-122.29C462.33,-144.21 462.33,-178 462.33,-178 462.33,-178 521.23,-178 521.23,-178"/>
<polygon fill="black" stroke="black" points="521.23,-181.5 531.23,-178 521.23,-174.5 521.23,-181.5"/>
</g>
<!-- UserComponent -->
<g id="node7" class="node">
<title>UserComponent</title>
<polygon fill="#ffffb3" stroke="black" points="774.76,-190 667.24,-190 667.24,-154 774.76,-154 774.76,-190"/>
<text text-anchor="middle" x="721" y="-167.8" font-family="Times,serif" font-size="14.00">UserComponent</text>
</g>
<!-- UserComponent&#45;&gt;UserModule -->
<g id="edge6" class="edge">
<title>UserComponent&#45;&gt;UserModule</title>
<path fill="none" stroke="black" d="M721,-153.78C721,-133.63 721,-104 721,-104 721,-104 501.26,-104 501.26,-104"/>
<polygon fill="black" stroke="black" points="501.26,-100.5 491.26,-104 501.26,-107.5 501.26,-100.5"/>
</g>
</g>
</svg>
